<svg id="Camada_1" data-name="Camada 1" xmlns="http://www.w3.org/2000/svg" viewBox="0 0 968.07 1079.97"><defs><style>.cls-1{fill:#70cf98;}.cls-2{fill:#524fed;}</style></defs><path class="cls-1" d="M812.25,1080,707.6,1028.16c30.53-27.18,52.21-63.63,38.54-101.24-14.67-40.37-51.87-60.43-98.61-55.27-111.16,12.29-84.36,167.61-242.84,187.89-123,15.75-236.69-41-271.19-140.75-19.2-55.5,1.32-107.81,53.16-152.1l107.27,57.69c-31.28,24.06-47.61,55.26-37.6,83.88,12.59,36,51.83,54.53,94.76,49.54C453.38,945.91,427.26,790.48,594,774c117.63-11.65,224.12,44.07,260.28,142.68C874.38,971.61,858.56,1033.64,812.25,1080Zm1.29-122.36L789,890.27,944,896.08l24,65.09Zm-789-20.17L0,865.94l168.14,4.66L192.58,941Z"/><path class="cls-2" d="M784.93,168.49S703.72,2.15,505.42,0h-.1C302.57-2.15,216,162.39,216,162.39s-79.64,96.16-35.57,278.07S439.92,886,462.27,914.37s33,23.94,33,23.94l.05-.23.05.23s10.32,4.65,32.77-23.23,238.74-286.9,285.68-467.84S784.93,168.49,784.93,168.49ZM496.25,508.6C404,507.61,330,429.6,331,334.37s76.66-171.64,169-170.65S666.22,242.71,665.2,338,588.54,509.58,496.25,508.6Z"/></svg>