<svg width="213" height="34" viewBox="0 0 213 34" fill="none" xmlns="http://www.w3.org/2000/svg">
<g clip-path="url(#clip0)">
<path d="M34.6682 24.9399H37.8743V9.05282H34.6682V7.18912H43.2048C44.369 7.18912 45.5203 7.30207 46.6585 7.52798C47.8488 7.76257 48.8828 8.23175 49.7603 8.93553C50.186 9.28307 50.5162 9.72619 50.7508 10.2649C50.9854 10.7949 51.1027 11.3857 51.1027 12.0373C51.1027 13.1321 50.8029 14.0227 50.2034 14.7091C49.6039 15.3955 48.7046 15.9125 47.5056 16.26C49.0174 16.6336 50.1687 17.2548 50.9593 18.1237C51.75 18.9839 52.1453 20.0873 52.1453 21.434C52.1453 22.1118 52.0411 22.733 51.8325 23.2977C51.6327 23.8625 51.359 24.336 51.0115 24.7183C50.6987 25.0659 50.2903 25.3787 49.7864 25.6567C49.2824 25.9347 48.7698 26.1476 48.2485 26.2953C47.7967 26.4256 47.2536 26.5342 46.6194 26.6211C45.9851 26.6993 45.4117 26.7515 44.899 26.7775C44.2908 26.7949 43.7608 26.8036 43.309 26.8036H34.6682V24.9399ZM43.7652 15.5693C44.9121 15.5693 45.9286 15.339 46.8149 14.8785C47.2667 14.6439 47.6229 14.3181 47.8836 13.901C48.1442 13.484 48.2746 13.0061 48.2746 12.4674C48.2746 11.642 48.0921 10.9687 47.7272 10.4473C47.4231 10.0303 46.8844 9.69143 46.1111 9.43078C45.5811 9.26569 44.7383 9.1484 43.5827 9.07889C42.9919 9.06151 42.4576 9.05282 41.9797 9.05282H40.9371V15.5693H43.7652ZM42.488 24.9399C43.6262 24.9399 44.5819 24.9008 45.3552 24.8226C45.7809 24.7792 46.1502 24.7183 46.463 24.6401C46.7845 24.5619 47.1016 24.4577 47.4144 24.3273C47.7011 24.2144 47.94 24.071 48.1312 23.8973C48.3223 23.7235 48.5005 23.5063 48.6655 23.2456C48.9436 22.8025 49.0826 22.1639 49.0826 21.3298C49.0826 20.6695 48.9349 20.0786 48.6395 19.5573C48.3441 19.0273 47.9357 18.5972 47.4144 18.2671C46.9018 17.9543 46.3327 17.7153 45.7071 17.5503C45.0902 17.3852 44.4429 17.3026 43.7652 17.3026H40.9371V24.9399H42.488ZM64.5656 24.2361C63.4709 26.1824 61.9026 27.1555 59.8608 27.1555C59.548 27.1555 59.2526 27.1338 58.9745 27.0903C58.6965 27.0469 58.3837 26.9687 58.0362 26.8557C57.3932 26.6559 56.8067 26.178 56.2767 25.4221C56.0248 25.0659 55.8293 24.6054 55.6903 24.0406C55.5512 23.4672 55.4817 22.8242 55.4817 22.1118V14.279H53.0316V12.8193H58.2838V22.0857C58.2838 23.2326 58.4663 24.0623 58.8312 24.575C59.1961 25.0876 59.7695 25.3439 60.5515 25.3439C61.1076 25.3439 61.6897 25.1788 62.2979 24.8487C62.9148 24.5185 63.4318 24.0841 63.8488 23.5454C64.2659 23.0067 64.4744 22.4636 64.4744 21.9163V14.279H62.1024V12.8193H67.2895V25.3309L69.8179 25.6046V26.8036L64.5656 27.1815V24.2361ZM76.2561 27.1555C74.8573 27.1555 73.5974 26.8905 72.4766 26.3605C71.8945 26.0911 71.434 25.7219 71.0951 25.2527C70.7563 24.7748 70.5868 24.2361 70.5868 23.6366C70.5868 23.2717 70.6694 22.9415 70.8344 22.6461C70.9995 22.342 71.2167 22.1074 71.4861 21.9423C71.7641 21.7772 72.0595 21.6947 72.3723 21.6947C72.885 21.6947 73.3063 21.8337 73.6365 22.1118C73.9667 22.3898 74.1318 22.7764 74.1318 23.2717C74.1318 23.5584 74.0709 23.8191 73.9493 24.0537C73.8364 24.2882 73.68 24.475 73.4801 24.6141C73.2803 24.7444 73.0718 24.8096 72.8545 24.8096C73.1934 25.0528 73.6452 25.257 74.21 25.4221C74.7834 25.5785 75.3525 25.6567 75.9173 25.6567C76.6384 25.6567 77.251 25.5872 77.7549 25.4482C78.2675 25.3092 78.702 25.0702 79.0582 24.7314C79.4318 24.3838 79.6186 23.9277 79.6186 23.3629C79.6186 22.9545 79.4926 22.5853 79.2406 22.2551C78.9887 21.925 78.6498 21.6643 78.2241 21.4731C77.277 21.0474 76.2561 20.6912 75.1614 20.4045C74.5966 20.2567 74.0449 20.0699 73.5062 19.844C72.9762 19.6181 72.507 19.3662 72.0986 19.0881C71.6642 18.8014 71.321 18.4278 71.069 17.9673C70.8258 17.5068 70.7041 16.9898 70.7041 16.4164C70.7041 15.8429 70.8258 15.3216 71.069 14.8524C71.321 14.3746 71.6512 13.9836 72.0595 13.6795C72.4418 13.4015 72.8806 13.1625 73.3759 12.9627C73.8798 12.7628 74.3707 12.6238 74.8486 12.5456C75.3351 12.4761 75.7783 12.4414 76.1779 12.4414C76.8035 12.4414 77.4334 12.5109 78.0677 12.6499C78.7106 12.7889 79.3102 12.9844 79.8662 13.2364C80.431 13.5057 80.8828 13.8533 81.2216 14.279C81.5605 14.6961 81.7299 15.1479 81.7299 15.6344C81.7299 16.008 81.6517 16.3469 81.4953 16.651C81.3476 16.9464 81.1434 17.1766 80.8828 17.3417C80.6221 17.5068 80.3441 17.5894 80.0487 17.5894C79.5361 17.5894 79.1103 17.4373 78.7715 17.1332C78.4326 16.8291 78.2632 16.4207 78.2632 15.9081C78.2632 15.6822 78.3197 15.465 78.4326 15.2565C78.5456 15.0393 78.6672 14.8785 78.7975 14.7743L79.2537 14.4615C78.3935 14.0444 77.4204 13.8359 76.3343 13.8359C75.7348 13.8359 75.1918 13.9271 74.7052 14.1096C74.2187 14.2833 73.8364 14.5397 73.5583 14.8785C73.2803 15.2174 73.1413 15.617 73.1413 16.0775C73.1413 16.4077 73.2673 16.7075 73.5192 16.9768C73.7712 17.2462 74.1144 17.459 74.5488 17.6154C75.5567 18.0064 76.5819 18.3409 77.6246 18.6189C78.1806 18.7753 78.728 18.9795 79.2667 19.2315C79.8054 19.4835 80.2876 19.7658 80.7134 20.0786C81.1478 20.3914 81.4866 20.7998 81.7299 21.3037C81.9819 21.799 82.1079 22.3507 82.1079 22.9589C82.1079 23.5758 81.9949 24.1319 81.769 24.6271C81.5431 25.1223 81.239 25.5307 80.8567 25.8522C80.5005 26.1563 80.0661 26.4126 79.5534 26.6211C79.0408 26.821 78.5065 26.96 77.9504 27.0382C77.4204 27.1164 76.8556 27.1555 76.2561 27.1555ZM87.4905 10.3561C87.1429 10.3561 86.8214 10.2692 86.526 10.0955C86.2306 9.92168 85.996 9.68709 85.8222 9.39168C85.6485 9.09627 85.5616 8.77913 85.5616 8.44028C85.5616 8.08405 85.6485 7.75823 85.8222 7.46281C85.996 7.15871 86.2306 6.91978 86.526 6.74601C86.8214 6.57223 87.1429 6.48535 87.4905 6.48535C87.8293 6.48535 88.1464 6.57658 88.4419 6.75904C88.746 6.93281 88.9849 7.17175 89.1587 7.47585C89.3411 7.77126 89.4324 8.09274 89.4324 8.44028C89.4324 8.77913 89.3411 9.09627 89.1587 9.39168C88.9849 9.68709 88.746 9.92168 88.4419 10.0955C88.1464 10.2692 87.8293 10.3561 87.4905 10.3561ZM83.8282 26.8036V25.3439H86.3436V14.279H83.8022V12.8193H89.1456V25.3439H91.7001V26.8036H83.8282ZM92.4299 25.3439H94.9713V14.279H92.4299V12.8193L97.3694 12.5978L97.6952 15.4389C97.9645 14.8134 98.3468 14.2747 98.8421 13.8229C99.3373 13.371 99.8891 13.0278 100.497 12.7933C101.105 12.5587 101.718 12.4414 102.335 12.4414C102.63 12.4414 102.891 12.4544 103.117 12.4805C103.351 12.5065 103.608 12.563 103.886 12.6499C104.199 12.7455 104.472 12.8671 104.707 13.0148C104.95 13.1625 105.198 13.3624 105.45 13.6143C105.71 13.8837 105.923 14.1921 106.088 14.5397C106.253 14.8785 106.392 15.2999 106.505 15.8038C106.61 16.3078 106.662 16.8769 106.662 17.5112V25.3439H109.334V26.8036H101.475V25.3439H103.86V17.5372C103.86 16.4338 103.643 15.6084 103.208 15.061C102.774 14.5049 102.161 14.2269 101.37 14.2269C100.884 14.2269 100.432 14.3181 100.015 14.5006C99.6067 14.683 99.2635 14.935 98.9854 15.2565C98.7161 15.5693 98.4859 15.9429 98.2947 16.3773C98.1122 16.803 97.9819 17.2505 97.9037 17.7197C97.8168 18.1541 97.7734 18.6363 97.7734 19.1663V25.3439H100.145V26.8036H92.4299V25.3439ZM116.632 27.1555C115.589 27.1555 114.629 26.96 113.752 26.569C112.874 26.1693 112.149 25.6219 111.575 24.9269C111.01 24.2491 110.576 23.4846 110.272 22.6331C109.976 21.7816 109.829 20.8997 109.829 19.9874C109.829 19.1967 109.92 18.4321 110.102 17.6936C110.294 16.9551 110.572 16.273 110.937 15.6475C111.736 14.2833 112.805 13.3493 114.143 12.8454C114.846 12.576 115.624 12.4414 116.476 12.4414C117.362 12.4414 118.187 12.5978 118.952 12.9106C119.716 13.2233 120.385 13.6751 120.959 14.266C121.541 14.8742 121.997 15.6388 122.327 16.5598C122.666 17.4807 122.844 18.5017 122.862 19.6225H112.813V19.7267C112.813 21.2386 113.135 22.5114 113.778 23.5454C114.099 24.0667 114.529 24.475 115.068 24.7705C115.607 25.0572 116.219 25.2005 116.906 25.2005C117.514 25.2005 118.1 25.0746 118.665 24.8226C119.239 24.5619 119.734 24.1883 120.151 23.7018C120.577 23.2065 120.881 22.6287 121.063 21.9684L122.588 22.4506C122.362 23.4064 121.975 24.2405 121.428 24.9529C120.881 25.6567 120.199 26.1997 119.382 26.582C118.565 26.9643 117.649 27.1555 116.632 27.1555ZM119.994 18.2149C119.977 17.3895 119.812 16.6597 119.499 16.0254C119.195 15.3825 118.782 14.8829 118.261 14.5266C117.748 14.1704 117.179 13.9923 116.554 13.9923C115.919 13.9923 115.337 14.1704 114.807 14.5266C114.277 14.8829 113.843 15.3825 113.504 16.0254C113.174 16.6597 112.974 17.3895 112.905 18.2149H119.994ZM130.551 27.1555C129.152 27.1555 127.892 26.8905 126.772 26.3605C126.189 26.0911 125.729 25.7219 125.39 25.2527C125.051 24.7748 124.882 24.2361 124.882 23.6366C124.882 23.2717 124.964 22.9415 125.129 22.6461C125.294 22.342 125.512 22.1074 125.781 21.9423C126.059 21.7772 126.354 21.6947 126.667 21.6947C127.18 21.6947 127.601 21.8337 127.931 22.1118C128.262 22.3898 128.427 22.7764 128.427 23.2717C128.427 23.5584 128.366 23.8191 128.244 24.0537C128.131 24.2882 127.975 24.475 127.775 24.6141C127.575 24.7444 127.367 24.8096 127.149 24.8096C127.488 25.0528 127.94 25.257 128.505 25.4221C129.078 25.5785 129.647 25.6567 130.212 25.6567C130.933 25.6567 131.546 25.5872 132.05 25.4482C132.562 25.3092 132.997 25.0702 133.353 24.7314C133.727 24.3838 133.914 23.9277 133.914 23.3629C133.914 22.9545 133.788 22.5853 133.536 22.2551C133.284 21.925 132.945 21.6643 132.519 21.4731C131.572 21.0474 130.551 20.6912 129.456 20.4045C128.892 20.2567 128.34 20.0699 127.801 19.844C127.271 19.6181 126.802 19.3662 126.394 19.0881C125.959 18.8014 125.616 18.4278 125.364 17.9673C125.121 17.5068 124.999 16.9898 124.999 16.4164C124.999 15.8429 125.121 15.3216 125.364 14.8524C125.616 14.3746 125.946 13.9836 126.354 13.6795C126.737 13.4015 127.176 13.1625 127.671 12.9627C128.175 12.7628 128.666 12.6238 129.144 12.5456C129.63 12.4761 130.073 12.4414 130.473 12.4414C131.098 12.4414 131.728 12.5109 132.363 12.6499C133.006 12.7889 133.605 12.9844 134.161 13.2364C134.726 13.5057 135.178 13.8533 135.517 14.279C135.855 14.6961 136.025 15.1479 136.025 15.6344C136.025 16.008 135.947 16.3469 135.79 16.651C135.643 16.9464 135.438 17.1766 135.178 17.3417C134.917 17.5068 134.639 17.5894 134.344 17.5894C133.831 17.5894 133.405 17.4373 133.066 17.1332C132.728 16.8291 132.558 16.4207 132.558 15.9081C132.558 15.6822 132.615 15.465 132.728 15.2565C132.84 15.0393 132.962 14.8785 133.092 14.7743L133.549 14.4615C132.688 14.0444 131.715 13.8359 130.629 13.8359C130.03 13.8359 129.487 13.9271 129 14.1096C128.514 14.2833 128.131 14.5397 127.853 14.8785C127.575 15.2174 127.436 15.617 127.436 16.0775C127.436 16.4077 127.562 16.7075 127.814 16.9768C128.066 17.2462 128.409 17.459 128.844 17.6154C129.852 18.0064 130.877 18.3409 131.92 18.6189C132.476 18.7753 133.023 18.9795 133.562 19.2315C134.1 19.4835 134.583 19.7658 135.008 20.0786C135.443 20.3914 135.782 20.7998 136.025 21.3037C136.277 21.799 136.403 22.3507 136.403 22.9589C136.403 23.5758 136.29 24.1319 136.064 24.6271C135.838 25.1223 135.534 25.5307 135.152 25.8522C134.795 26.1563 134.361 26.4126 133.848 26.6211C133.336 26.821 132.801 26.96 132.245 27.0382C131.715 27.1164 131.151 27.1555 130.551 27.1555ZM144.105 27.1555C142.706 27.1555 141.447 26.8905 140.326 26.3605C139.744 26.0911 139.283 25.7219 138.944 25.2527C138.605 24.7748 138.436 24.2361 138.436 23.6366C138.436 23.2717 138.518 22.9415 138.684 22.6461C138.849 22.342 139.066 22.1074 139.335 21.9423C139.613 21.7772 139.909 21.6947 140.221 21.6947C140.734 21.6947 141.155 21.8337 141.486 22.1118C141.816 22.3898 141.981 22.7764 141.981 23.2717C141.981 23.5584 141.92 23.8191 141.798 24.0537C141.685 24.2882 141.529 24.475 141.329 24.6141C141.129 24.7444 140.921 24.8096 140.704 24.8096C141.043 25.0528 141.494 25.257 142.059 25.4221C142.633 25.5785 143.202 25.6567 143.766 25.6567C144.488 25.6567 145.1 25.5872 145.604 25.4482C146.117 25.3092 146.551 25.0702 146.907 24.7314C147.281 24.3838 147.468 23.9277 147.468 23.3629C147.468 22.9545 147.342 22.5853 147.09 22.2551C146.838 21.925 146.499 21.6643 146.073 21.4731C145.126 21.0474 144.105 20.6912 143.01 20.4045C142.446 20.2567 141.894 20.0699 141.355 19.844C140.825 19.6181 140.356 19.3662 139.948 19.0881C139.513 18.8014 139.17 18.4278 138.918 17.9673C138.675 17.5068 138.553 16.9898 138.553 16.4164C138.553 15.8429 138.675 15.3216 138.918 14.8524C139.17 14.3746 139.5 13.9836 139.909 13.6795C140.291 13.4015 140.73 13.1625 141.225 12.9627C141.729 12.7628 142.22 12.6238 142.698 12.5456C143.184 12.4761 143.627 12.4414 144.027 12.4414C144.653 12.4414 145.283 12.5109 145.917 12.6499C146.56 12.7889 147.159 12.9844 147.715 13.2364C148.28 13.5057 148.732 13.8533 149.071 14.279C149.41 14.6961 149.579 15.1479 149.579 15.6344C149.579 16.008 149.501 16.3469 149.344 16.651C149.197 16.9464 148.993 17.1766 148.732 17.3417C148.471 17.5068 148.193 17.5894 147.898 17.5894C147.385 17.5894 146.959 17.4373 146.621 17.1332C146.282 16.8291 146.112 16.4207 146.112 15.9081C146.112 15.6822 146.169 15.465 146.282 15.2565C146.395 15.0393 146.516 14.8785 146.647 14.7743L147.103 14.4615C146.243 14.0444 145.27 13.8359 144.183 13.8359C143.584 13.8359 143.041 13.9271 142.554 14.1096C142.068 14.2833 141.685 14.5397 141.407 14.8785C141.129 15.2174 140.99 15.617 140.99 16.0775C140.99 16.4077 141.116 16.7075 141.368 16.9768C141.62 17.2462 141.964 17.459 142.398 17.6154C143.406 18.0064 144.431 18.3409 145.474 18.6189C146.03 18.7753 146.577 18.9795 147.116 19.2315C147.655 19.4835 148.137 19.7658 148.562 20.0786C148.997 20.3914 149.336 20.7998 149.579 21.3037C149.831 21.799 149.957 22.3507 149.957 22.9589C149.957 23.5758 149.844 24.1319 149.618 24.6271C149.392 25.1223 149.088 25.5307 148.706 25.8522C148.35 26.1563 147.915 26.4126 147.403 26.6211C146.89 26.821 146.356 26.96 145.8 27.0382C145.27 27.1164 144.705 27.1555 144.105 27.1555Z" fill="white"/>
<path d="M159.289 27.1555C157.95 27.086 156.682 26.7992 155.483 26.2953C154.805 26.0173 154.223 25.7001 153.737 25.3439C153.259 24.9877 152.872 24.5663 152.577 24.0797C152.264 23.5671 152.107 23.0154 152.107 22.4245C152.107 21.9554 152.212 21.534 152.42 21.1604C152.637 20.7781 152.924 20.4826 153.28 20.2741C153.645 20.0569 154.036 19.9483 154.453 19.9483C154.827 19.9483 155.174 20.0526 155.496 20.2611C155.817 20.4609 156.069 20.7303 156.252 21.0691C156.443 21.3993 156.539 21.7468 156.539 22.1118C156.539 22.6678 156.378 23.1023 156.056 23.415C155.735 23.7278 155.283 23.9233 154.701 24.0015C156.013 24.8269 157.542 25.2874 159.289 25.383V18.5538C159.228 18.5538 159.15 18.5364 159.054 18.5017C156.456 17.8674 154.662 17.042 153.671 16.0254C153.193 15.5388 152.85 15.0349 152.642 14.5136C152.442 13.9923 152.342 13.3971 152.342 12.7281C152.342 11.6594 152.624 10.708 153.189 9.87389C153.754 9.03979 154.558 8.3838 155.6 7.90593C156.652 7.42806 157.881 7.17175 159.289 7.13699V5.18206L160.54 5.156V7.18912C162.017 7.29339 163.411 7.66699 164.723 8.30995C165.392 8.64012 165.922 9.07889 166.313 9.62627C166.704 10.165 166.9 10.7645 166.9 11.4248C166.9 12.2068 166.7 12.841 166.3 13.3276C165.909 13.8055 165.371 14.0444 164.684 14.0444C164.293 14.0444 163.928 13.9706 163.589 13.8229C163.259 13.6665 162.994 13.4492 162.794 13.1712C162.595 12.8845 162.495 12.563 162.495 12.2068C162.495 11.5464 162.664 11.0425 163.003 10.695C163.342 10.3474 163.767 10.1736 164.28 10.1736C163.368 9.36561 162.121 8.91381 160.54 8.81823V15.7517C161.939 16.0993 163.094 16.4816 164.006 16.8986C164.927 17.307 165.636 17.7631 166.131 18.2671C166.609 18.7623 166.943 19.2836 167.134 19.831C167.334 20.3784 167.434 21.03 167.434 21.7859C167.434 23.4281 166.856 24.7053 165.701 25.6176C164.545 26.5212 162.825 27.0251 160.54 27.1294V29.2798L159.289 29.3189V27.1555ZM159.289 8.81823C158.498 8.88774 157.781 9.06586 157.138 9.35258C156.495 9.6393 155.987 10.0216 155.613 10.4995C155.248 10.9773 155.066 11.5204 155.066 12.1286C155.066 12.4414 155.092 12.7064 155.144 12.9236C155.205 13.1408 155.313 13.371 155.47 13.6143C155.644 13.875 155.878 14.1052 156.174 14.3051C156.469 14.4962 156.877 14.6917 157.399 14.8915C157.955 15.1088 158.585 15.2999 159.289 15.465V8.81823ZM160.618 25.383C161.443 25.3309 162.173 25.1658 162.807 24.8878C163.45 24.6097 163.954 24.2318 164.319 23.7539C164.684 23.2673 164.867 22.7113 164.867 22.0857C164.867 21.5296 164.719 21.0648 164.423 20.6912C164.128 20.3176 163.672 19.9917 163.055 19.7137C162.447 19.4357 161.608 19.1576 160.54 18.8796V25.383H160.618ZM168.438 30.4658H171.5V14.279H168.972V12.8193L174.224 12.4414V15.061C174.693 14.2095 175.289 13.5622 176.01 13.1191C176.74 12.6673 177.561 12.4414 178.473 12.4414C179.55 12.4414 180.519 12.7672 181.379 13.4188C182.239 14.0618 182.908 14.948 183.386 16.0775C183.847 17.1984 184.077 18.4321 184.077 19.7789C184.077 21.2212 183.834 22.5027 183.347 23.6236C182.861 24.7357 182.17 25.6046 181.275 26.2301C180.38 26.847 179.337 27.1555 178.147 27.1555C177.374 27.1555 176.648 26.973 175.971 26.6081C175.302 26.2345 174.746 25.7219 174.302 25.0702V30.4398H177.183V32.0298H168.438V30.4658ZM177.639 25.6828C178.23 25.6828 178.755 25.509 179.216 25.1614C179.676 24.8052 180.041 24.323 180.311 23.7148C180.832 22.5158 181.093 21.1517 181.093 19.6225C181.093 18.632 180.962 17.7327 180.702 16.9247C180.441 16.1079 180.046 15.4346 179.516 14.9046C178.977 14.3659 178.351 14.0965 177.639 14.0965C176.952 14.0965 176.34 14.3442 175.801 14.8394C175.271 15.326 174.858 16.008 174.563 16.8856C174.268 17.7631 174.12 18.758 174.12 19.8701C174.12 21.3124 174.389 22.6113 174.928 23.7669C175.197 24.3578 175.567 24.8269 176.036 25.1745C176.514 25.5133 177.048 25.6828 177.639 25.6828ZM192.822 27.1555C191.458 27.1555 190.259 26.8427 189.225 26.2171C188.191 25.5828 187.392 24.7096 186.827 23.5975C186.271 22.4854 185.993 21.2212 185.993 19.8049C185.993 18.3974 186.258 17.1419 186.788 16.0384C187.327 14.935 188.113 14.0618 189.147 13.4188C190.189 12.7672 191.406 12.4414 192.796 12.4414C193.821 12.4414 194.764 12.6282 195.624 13.0018C196.493 13.3754 197.219 13.8967 197.801 14.5657C198.374 15.2261 198.813 16.008 199.117 16.9116C199.421 17.8066 199.573 18.771 199.573 19.8049C199.573 21.2038 199.308 22.455 198.778 23.5584C198.248 24.6532 197.47 25.522 196.445 26.165C195.42 26.8253 194.212 27.1555 192.822 27.1555ZM192.822 25.5003C193.587 25.5003 194.251 25.2744 194.816 24.8226C195.39 24.3621 195.828 23.7148 196.132 22.8807C196.437 22.0466 196.589 21.0778 196.589 19.9744C196.589 18.7667 196.458 17.7327 196.198 16.8725C195.937 16.0037 195.524 15.3086 194.959 14.7873C194.377 14.2573 193.656 13.9923 192.796 13.9923C191.953 13.9923 191.236 14.2529 190.646 14.7743C190.055 15.2956 189.629 16.008 189.368 16.9116C189.108 17.7805 188.977 18.8014 188.977 19.9744C188.977 21.0778 189.129 22.0466 189.434 22.8807C189.746 23.7148 190.194 24.3621 190.776 24.8226C191.358 25.2744 192.04 25.5003 192.822 25.5003ZM207.158 27.1555C206.037 27.1555 205.077 26.8253 204.278 26.165C203.861 25.8261 203.531 25.3787 203.287 24.8226C203.053 24.2665 202.936 23.6453 202.936 22.9589V14.279H200.277V13.6665C200.92 13.4753 201.515 13.1278 202.062 12.6238C202.61 12.1199 203.057 11.5508 203.405 10.9165C203.726 10.3431 204.013 9.76094 204.265 9.17012C204.586 8.43159 204.804 7.95806 204.917 7.74954C205.099 7.37593 205.26 7.18912 205.399 7.18912C205.503 7.18912 205.586 7.22822 205.646 7.30642C205.707 7.38462 205.738 7.49757 205.738 7.64527V12.8193H210.873V14.3051H205.738V23.0371C205.738 23.7843 205.907 24.3534 206.246 24.7444C206.585 25.1354 207.05 25.3309 207.64 25.3309C208.362 25.3309 208.892 25.0963 209.23 24.6271C209.578 24.1492 209.752 23.3542 209.752 22.2421V20.3654H211.316V21.9684C211.316 23.15 211.181 24.1188 210.912 24.8747C210.642 25.6306 210.204 26.1997 209.595 26.582C208.987 26.9643 208.175 27.1555 207.158 27.1555Z" fill="#70CF98"/>
<path d="M23.8557 31.7193L20.782 30.1971C21.6781 29.3992 22.3164 28.3288 21.9138 27.2241C21.4841 26.0383 20.3917 25.4491 19.0193 25.6013C15.7541 25.9622 16.5397 30.5114 11.8849 31.1202C8.27352 31.5818 4.93465 29.9148 3.92808 26.9859C3.36342 25.3558 3.96736 23.8189 5.48949 22.5177L8.63932 24.2117C7.72113 24.9188 7.2424 25.8345 7.53701 26.6668C7.90526 27.7249 9.05914 28.2675 10.3186 28.1226C13.3236 27.7715 12.5551 23.2125 17.453 22.7215C20.9072 22.3802 24.0349 24.0178 25.0955 26.9123C25.6798 28.5375 25.2158 30.3592 23.8557 31.7193ZM23.895 28.1251L23.1732 26.161L27.7273 26.3304L28.4319 28.2429L23.895 28.1251ZM0.71933 27.5334L0 25.4343L4.93711 25.5694L5.64662 27.6365L0.71933 27.5334Z" fill="#70CF98"/>
<path d="M23.0529 4.94937C23.0529 4.94937 20.669 0.0638171 14.8457 -1.42348e-05C8.88726 -0.0638456 6.34383 4.77015 6.34383 4.77015C6.34383 4.77015 4.00417 7.59346 5.29798 12.9356C6.59179 18.2778 12.9209 26.0235 13.5764 26.8558C14.2319 27.688 14.5584 27.5579 14.5584 27.5579C14.5584 27.5579 14.8629 27.6954 15.5208 26.8754C16.1788 26.0554 22.5324 18.4497 23.9122 13.1271C25.2919 7.80459 23.0529 4.94937 23.0529 4.94937ZM14.5756 14.939C11.8751 14.9095 9.69252 12.6165 9.72198 9.82019C9.75144 7.02389 11.9733 4.77997 14.6836 4.80943C17.394 4.83889 19.5667 7.11963 19.5373 9.92576C19.5078 12.7319 17.286 14.9758 14.5756 14.939Z" fill="#524FED"/>
</g>
<defs>
<clipPath id="clip0">
<rect width="212.192" height="34" fill="white"/>
</clipPath>
</defs>
</svg>
